<svg width="33" height="32" viewBox="0 0 33 32" fill="none" xmlns="http://www.w3.org/2000/svg">
<path d="M22.646 20.2C22.0327 20.2 21.526 19.7067 21.526 19.0934C21.526 18.48 22.0327 18 22.646 18C23.2593 18 23.766 18.48 23.766 19.0934C23.766 19.7067 23.2593 20.2 22.646 20.2ZM10.3793 20.2C9.76602 20.2 9.25935 19.7067 9.25935 19.0934C9.25935 18.48 9.76602 18 10.3793 18C10.9927 18 11.486 18.48 11.486 19.0934C11.486 19.7067 10.9927 20.2 10.3793 20.2ZM23.046 13.52L25.2727 9.68004C25.3927 9.45338 25.3127 9.17337 25.0993 9.05337C24.8727 8.92004 24.5927 9.00004 24.4993 9.22671L22.2194 13.1067C20.4327 12.2934 18.4993 11.8667 16.4993 11.88C14.4593 11.88 12.4993 12.32 10.806 13.0934L8.55268 9.21337C8.43268 8.98671 8.15268 8.90671 7.92602 9.04004C7.69935 9.16004 7.63268 9.44004 7.75268 9.66671L9.96602 13.5067C6.16602 15.5867 3.55268 19.44 3.16602 24H29.8327C29.4594 19.4534 26.8594 15.6 23.046 13.52Z" fill="#1A2D6B"/>
</svg>
