<svg width="33" height="32" viewBox="0 0 33 32" fill="none" xmlns="http://www.w3.org/2000/svg">
<path d="M25.4465 26.0001C24.3398 27.6534 23.1665 29.2667 21.3798 29.2934C19.5931 29.3334 19.0198 28.2401 16.9931 28.2401C14.9531 28.2401 14.3265 29.2667 12.6331 29.3334C10.8865 29.4001 9.56646 27.5734 8.44646 25.9601C6.16646 22.6667 4.4198 16.6001 6.76646 12.5201C7.92646 10.4934 10.0065 9.21342 12.2598 9.17342C13.9665 9.14675 15.5931 10.3334 16.6465 10.3334C17.6865 10.3334 19.6598 8.90675 21.7265 9.12008C22.5931 9.16008 25.0198 9.46675 26.5798 11.7601C26.4598 11.8401 23.6865 13.4667 23.7131 16.8401C23.7531 20.8667 27.2465 22.2134 27.2865 22.2267C27.2465 22.3201 26.7265 24.1467 25.4465 26.0001ZM17.8331 4.66675C18.8065 3.56008 20.4198 2.72008 21.7531 2.66675C21.9265 4.22675 21.2998 5.80008 20.3665 6.92008C19.4465 8.05341 17.9265 8.93341 16.4331 8.81342C16.2331 7.28008 16.9798 5.68008 17.8331 4.66675Z" fill="#1A2D6B"/>
</svg>
