<svg width="72" height="30" viewBox="0 0 72 30" fill="none" xmlns="http://www.w3.org/2000/svg">
<path fill-rule="evenodd" clip-rule="evenodd" d="M20.0991 1.00672C19.4844 0.161454 18.3008 -0.0254115 17.4555 0.589346L0.82231 12.6865C0.331262 13.0437 0.0413993 13.6147 0.042966 14.2219C0.0445326 14.8291 0.337339 15.3987 0.830222 15.7532L16.1462 26.7721C16.9946 27.3825 18.1772 27.1895 18.7876 26.3411C19.398 25.4926 19.2051 24.31 18.3566 23.6996L7.06367 15.5751C32.2092 13.721 58.4589 23.9119 68.9542 29.6069C69.8729 30.1054 71.0217 29.7648 71.5202 28.8461C72.0187 27.9275 71.6781 26.7786 70.7594 26.2802C60.211 20.5564 34.2195 10.3655 8.63462 11.6848L19.6817 3.65034C20.527 3.03558 20.7139 1.85199 20.0991 1.00672Z" fill="white"/>
</svg>
