<svg width="77" height="35" viewBox="0 0 77 35" fill="none" xmlns="http://www.w3.org/2000/svg">
<path fill-rule="evenodd" clip-rule="evenodd" d="M54.1313 0.904904C54.7013 0.0288349 55.8736 -0.219275 56.7497 0.350736L75.3048 12.4236C75.8138 12.7547 76.1329 13.3099 76.1629 13.9164C76.1929 14.5228 75.93 15.1068 75.4563 15.4866L59.6096 28.187C58.7941 28.8406 57.603 28.7093 56.9494 27.8938C56.2957 27.0782 56.427 25.8872 57.2426 25.2335L69.2358 15.6215C41.9376 14.9034 14.0483 27.4288 3.0209 34.1767C2.12939 34.7223 0.964428 34.4418 0.41889 33.5503C-0.126649 32.6588 0.153819 31.4938 1.04533 30.9483C12.1175 24.173 39.7175 11.673 67.4188 11.8082L54.6855 3.52326C53.8094 2.95325 53.5613 1.78097 54.1313 0.904904Z" fill="white"/>
</svg>
