<svg width="32" height="33" viewBox="0 0 32 33" fill="none" xmlns="http://www.w3.org/2000/svg">
<path d="M25.3333 15.1667H6.66667C5.19391 15.1667 4 16.3607 4 17.8334V27.1667C4 28.6395 5.19391 29.8334 6.66667 29.8334H25.3333C26.8061 29.8334 28 28.6395 28 27.1667V17.8334C28 16.3607 26.8061 15.1667 25.3333 15.1667Z" stroke="#8692B4" stroke-width="2" stroke-linecap="round" stroke-linejoin="round"/>
<path d="M9.33203 15.1667V9.83341C9.33203 8.0653 10.0344 6.36961 11.2847 5.11937C12.5349 3.86913 14.2306 3.16675 15.9987 3.16675C17.7668 3.16675 19.4625 3.86913 20.7127 5.11937C21.963 6.36961 22.6654 8.0653 22.6654 9.83341V15.1667" stroke="#8692B4" stroke-width="2" stroke-linecap="round" stroke-linejoin="round"/>
</svg>
