<svg width="32" height="33" viewBox="0 0 32 33" fill="none" xmlns="http://www.w3.org/2000/svg">
<path d="M15.9993 21.8334C18.9449 21.8334 21.3327 19.4456 21.3327 16.5001C21.3327 13.5546 18.9449 11.1667 15.9993 11.1667C13.0538 11.1667 10.666 13.5546 10.666 16.5001C10.666 19.4456 13.0538 21.8334 15.9993 21.8334Z" stroke="#1A2D6B" stroke-width="2" stroke-linecap="round" stroke-linejoin="round"/>
<path d="M21.3327 11.1668V17.8334C21.3327 18.8943 21.7541 19.9117 22.5043 20.6619C23.2544 21.412 24.2718 21.8334 25.3327 21.8334C26.3936 21.8334 27.411 21.412 28.1611 20.6619C28.9113 19.9117 29.3327 18.8943 29.3327 17.8334V16.5001C29.3327 13.4965 28.3186 10.5809 26.4546 8.22565C24.5906 5.87041 21.986 4.21352 19.0627 3.52344C16.1395 2.83336 13.0689 3.1505 10.3484 4.42349C7.6279 5.69649 5.41692 7.85075 4.07367 10.5372C2.73042 13.2237 2.3336 16.2851 2.9475 19.2253C3.5614 22.1655 5.15005 24.8122 7.45607 26.7368C9.76208 28.6613 12.6504 29.7509 15.6529 29.8289C18.6555 29.907 21.5965 28.9689 23.9994 27.1668" stroke="#1A2D6B" stroke-width="2" stroke-linecap="round" stroke-linejoin="round"/>
</svg>
