<svg width="32" height="33" viewBox="0 0 32 33" fill="none" xmlns="http://www.w3.org/2000/svg">
<path d="M18.666 12.5001C18.666 13.2073 18.3851 13.8856 17.885 14.3857C17.3849 14.8858 16.7066 15.1667 15.9993 15.1667H7.99935L2.66602 20.5001V5.83341C2.66602 4.36675 3.86602 3.16675 5.33268 3.16675H15.9993C16.7066 3.16675 17.3849 3.4477 17.885 3.9478C18.3851 4.44789 18.666 5.12617 18.666 5.83341V12.5001Z" stroke="#1A2D6B" stroke-width="2" stroke-linecap="round" stroke-linejoin="round"/>
<path d="M24.0007 12.5H26.6673C27.3746 12.5 28.0528 12.781 28.5529 13.281C29.053 13.7811 29.334 14.4594 29.334 15.1667V29.8333L24.0007 24.5H16.0007C15.2934 24.5 14.6151 24.219 14.115 23.719C13.6149 23.2189 13.334 22.5406 13.334 21.8333V20.5" stroke="#1A2D6B" stroke-width="2" stroke-linecap="round" stroke-linejoin="round"/>
</svg>
