<svg width="32" height="32" viewBox="0 0 32 32" fill="none" xmlns="http://www.w3.org/2000/svg">
<path d="M23.9997 5.33337H7.99967C6.52691 5.33337 5.33301 6.52728 5.33301 8.00004V24C5.33301 25.4728 6.52691 26.6667 7.99967 26.6667H23.9997C25.4724 26.6667 26.6663 25.4728 26.6663 24V8.00004C26.6663 6.52728 25.4724 5.33337 23.9997 5.33337Z" stroke="#1A2D6B" stroke-width="2" stroke-linecap="round" stroke-linejoin="round"/>
<path d="M20 12H12V20H20V12Z" stroke="#1A2D6B" stroke-width="2" stroke-linecap="round" stroke-linejoin="round"/>
<path d="M20 2.66663V5.33329" stroke="#1A2D6B" stroke-width="2" stroke-linecap="round" stroke-linejoin="round"/>
<path d="M20 26.6666V29.3333" stroke="#1A2D6B" stroke-width="2" stroke-linecap="round" stroke-linejoin="round"/>
<path d="M2.66699 20H5.33366" stroke="#1A2D6B" stroke-width="2" stroke-linecap="round" stroke-linejoin="round"/>
<path d="M2.66699 12H5.33366" stroke="#1A2D6B" stroke-width="2" stroke-linecap="round" stroke-linejoin="round"/>
<path d="M26.667 20H29.3337" stroke="#1A2D6B" stroke-width="2" stroke-linecap="round" stroke-linejoin="round"/>
<path d="M26.667 12H29.3337" stroke="#1A2D6B" stroke-width="2" stroke-linecap="round" stroke-linejoin="round"/>
<path d="M12 2.66663V5.33329" stroke="#1A2D6B" stroke-width="2" stroke-linecap="round" stroke-linejoin="round"/>
<path d="M12 26.6666V29.3333" stroke="#1A2D6B" stroke-width="2" stroke-linecap="round" stroke-linejoin="round"/>
</svg>
