<svg width="32" height="32" viewBox="0 0 32 32" fill="none" xmlns="http://www.w3.org/2000/svg">
<path d="M10.6663 29.3334C11.4027 29.3334 11.9997 28.7364 11.9997 28C11.9997 27.2636 11.4027 26.6667 10.6663 26.6667C9.92996 26.6667 9.33301 27.2636 9.33301 28C9.33301 28.7364 9.92996 29.3334 10.6663 29.3334Z" stroke="#1A2D6B" stroke-width="2" stroke-linecap="round" stroke-linejoin="round"/>
<path d="M25.3333 29.3334C26.0697 29.3334 26.6667 28.7364 26.6667 28C26.6667 27.2636 26.0697 26.6667 25.3333 26.6667C24.597 26.6667 24 27.2636 24 28C24 28.7364 24.597 29.3334 25.3333 29.3334Z" stroke="#1A2D6B" stroke-width="2" stroke-linecap="round" stroke-linejoin="round"/>
<path d="M2.7334 2.73334H5.40007L8.94673 19.2933C9.07684 19.8998 9.41429 20.442 9.90101 20.8265C10.3877 21.211 10.9933 21.4138 11.6134 21.4H24.6534C25.2603 21.399 25.8487 21.1911 26.3214 20.8105C26.7942 20.4298 27.1229 19.8994 27.2534 19.3067L29.4534 9.4H6.82673" stroke="#1A2D6B" stroke-width="2" stroke-linecap="round" stroke-linejoin="round"/>
</svg>
